<svg width="186" height="140" viewBox="0 0 186 140" fill="none" xmlns="http://www.w3.org/2000/svg">
<path fill-rule="evenodd" clip-rule="evenodd" d="M0 0H185.365V139.024H0V0Z" fill="#229E45"/>
<path fill-rule="evenodd" clip-rule="evenodd" d="M93.0881 126.28L180.413 69.5988L92.5668 12.7439L4.95276 69.7147L93.0881 126.28Z" fill="#F8E509"/>
<path fill-rule="evenodd" clip-rule="evenodd" d="M131.146 69.512C131.146 89.8732 114.608 106.382 94.1887 106.382C86.892 106.371 79.7624 104.196 73.7014 100.133C67.6403 96.0707 62.9199 90.3021 60.1368 83.5569C57.3537 76.8118 56.6329 69.3929 58.0656 62.2382C59.4982 55.0835 63.02 48.5141 68.1856 43.3606C73.3513 38.2071 79.9289 34.7008 87.087 33.285C94.2451 31.8692 101.662 32.6075 108.401 35.4064C115.139 38.2054 120.897 42.9394 124.945 49.01C128.994 55.0806 131.152 62.2152 131.146 69.512Z" fill="#2B49A3"/>
<path fill-rule="evenodd" clip-rule="evenodd" d="M82.0531 91.611L80.8945 90.9448L79.736 91.5241L79.9967 90.2207L79.0698 89.236L80.3732 89.0912L81.0104 87.9326L81.5607 89.1491L82.8351 89.3808L81.8793 90.2497M106.788 97.867L105.658 97.2009L104.5 97.7801L104.731 96.4768L103.833 95.521L105.137 95.3762L105.745 94.1887L106.324 95.4051L107.599 95.6369L106.614 96.5347M96.1292 87.8457L95.1445 87.2665L94.1308 87.7878L94.3625 86.6582L93.5515 85.8183L94.71 85.7024L95.2314 84.6598L95.6948 85.7314L96.8243 85.9342L95.9554 86.7162M121.154 84.2543L120.169 83.675L119.155 84.1964L119.387 83.0668L118.605 82.2558L119.734 82.14L120.256 81.1262L120.719 82.1689L121.82 82.3717L120.98 83.1247M95.6948 76.7528L94.5362 76.1156L93.3777 76.6948L93.6094 75.3625L92.7116 74.4067L94.0149 74.2619L94.6231 73.0744L95.2024 74.2909L96.4768 74.5226L95.492 75.4494M65.1964 65.3123L64.0379 64.6751L62.8793 65.2543L63.169 63.922L62.2132 62.9662L63.5455 62.8214L64.1248 61.6339L64.704 62.8504L65.9784 63.0821L65.0226 63.98M68.8748 80.547L67.7162 79.8808L66.5577 80.4601L66.8184 79.1567L65.8915 78.2009L67.1949 78.0272L67.8031 76.8686L68.3824 78.0851L69.6568 78.3168L68.701 79.2147M106.933 59.7223L105.89 59.1431L104.847 59.6644L105.079 58.5059L104.268 57.637L105.426 57.4922L105.977 56.4495L106.469 57.5501L107.628 57.7528L106.759 58.5349M104.818 69.6278L104.036 69.1644L103.196 69.5699L103.37 68.643L102.733 67.9769L103.66 67.861L104.094 67.0501L104.471 67.919L105.34 68.0638L104.702 68.701M63.5165 83.2985L62.7345 82.864L61.9525 83.2406L62.1263 82.3717L61.5181 81.7345L62.387 81.6186L62.7925 80.8366L63.169 81.6476L64.0379 81.8214L63.3717 82.4006M121.356 86.832L120.719 86.5134L120.082 86.8031L120.227 86.1369L119.734 85.6735L120.429 85.5866L120.777 85.0073L121.067 85.5866L121.791 85.7314L121.24 86.1659" fill="#FFFFEF"/>
<path fill-rule="evenodd" clip-rule="evenodd" d="M63.5165 83.2985L62.7345 82.864L61.9525 83.2406L62.1263 82.3717L61.5181 81.7345L62.387 81.6186L62.7925 80.8366L63.169 81.6476L64.0379 81.8214L63.3717 82.4006" fill="#FFFFEF"/>
<path fill-rule="evenodd" clip-rule="evenodd" d="M63.5165 83.2985L62.7345 82.864L61.9525 83.2405L62.1263 82.3716L61.5181 81.7345L62.387 81.6186L62.7925 80.8366L63.169 81.6476L64.0379 81.8213L63.3717 82.4006M75.6232 83.2695L74.8702 82.864L74.0881 83.2405L74.2619 82.3716L73.6537 81.7345L74.5226 81.6186L74.9281 80.8366L75.3046 81.6476L76.1735 81.7924L75.5074 82.4006M74.1171 87.3244L73.3641 86.8899L72.5821 87.2954L72.7558 86.4265L72.1476 85.7604L73.0165 85.6445L73.422 84.8625L73.7985 85.6735L74.6674 85.8472L74.0013 86.4265M99.3152 79.9967L98.5621 79.5332L97.7512 79.9387L97.925 79.0698L97.3457 78.4037L98.2146 78.3168L98.6201 77.5348L98.9676 78.3457L99.8365 78.4906L99.1993 79.0988M91.9295 79.9677L91.1475 79.5332L90.3655 79.9387L90.5393 79.0698L89.96 78.4037L90.8289 78.3168L91.2344 77.5058L91.582 78.3457L92.4509 78.4906L91.8137 79.0988M71.8869 77.4189L71.3946 77.1293L70.9022 77.361L71.018 76.8107L70.6415 76.4052L71.1918 76.3473L71.4235 75.8549L71.6552 76.3762L72.2055 76.4631L71.8 76.8397M120.4 89.989L119.647 89.5546L118.865 89.96L119.039 89.0911L118.431 88.425L119.3 88.3091L119.705 87.5271L120.082 88.3381L120.951 88.5119L120.285 89.0911M114.26 90.8289L113.623 90.4235L112.957 90.771L113.102 90.018L112.609 89.4966L113.333 89.4097L113.681 88.7436L113.971 89.4387L114.695 89.5546L114.144 90.0759M117.157 90.742L116.577 90.3945L115.969 90.6841L116.085 90.018L115.622 89.5256L116.288 89.4387L116.606 88.8594L116.896 89.4387L117.562 89.5835L117.07 90.0469M125.498 83.4433L124.919 83.1537L124.339 83.4433L124.484 82.7771L124.021 82.2848L124.687 82.1979L124.977 81.6186L125.266 82.2268L125.875 82.3427L125.411 82.8061M114.173 94.9128L113.449 94.5073L112.667 94.8548L112.841 94.0439L112.262 93.4646L113.131 93.3777L113.507 92.6536L113.855 93.4067L114.724 93.5515L114.058 94.1018M114.231 98.2146L113.536 97.8091L112.841 98.1856L113.015 97.3746L112.465 96.7954L113.247 96.6795L113.594 95.9554L113.913 96.7085L114.695 96.8533L114.115 97.4326M108.612 90.742L108.062 90.3945L107.483 90.6841L107.599 90.0469L107.164 89.5546L107.801 89.4966L108.091 88.9174L108.381 89.4966L109.018 89.6125L108.554 90.0759M103.399 90.742L102.82 90.3945L102.24 90.6841L102.385 90.0469L101.922 89.5546L102.588 89.4966L102.878 88.9174L103.167 89.4966L103.776 89.6125L103.312 90.0759M94.5073 82.9509L93.928 82.6323L93.3487 82.9219L93.4936 82.2558L93.0302 81.7924L93.6673 81.7055L93.957 81.1262L94.2466 81.7055L94.8838 81.8503L94.4204 82.2848M95.492 98.7938L95.0286 98.5332L94.5073 98.7938L94.6231 98.2146L94.2466 97.8091L94.7969 97.7512L95.0576 97.2588L95.2893 97.7801L95.8396 97.867L95.4341 98.2435M82.0531 73.1613L80.8945 72.4952L79.736 73.0744L79.9967 71.7711L79.0698 70.8153L80.3732 70.6415L81.0104 69.483L81.5607 70.6994L82.8351 70.9311L81.8793 71.829" fill="#FFFFEF"/>
<path fill-rule="evenodd" clip-rule="evenodd" d="M128.713 82.7772C129.43 80.9153 129.992 78.9972 130.393 77.0424C110.756 59.8092 88.8884 50.9754 61.2574 52.8001C60.2553 54.7392 59.4313 56.7653 58.7955 58.8535C91.5241 55.7254 115.564 70.2071 128.713 82.7772Z" fill="white"/>
<path d="M119.908 73.1034L120.574 73.4799C120.475 73.6766 120.444 73.901 120.487 74.1171C120.555 74.3267 120.7 74.5027 120.893 74.6095C121.096 74.7543 121.298 74.8412 121.472 74.8122C121.646 74.8122 121.762 74.7254 121.849 74.6095C121.899 74.5326 121.92 74.4399 121.907 74.3488C121.883 74.2418 121.833 74.1424 121.762 74.0592C121.704 73.9723 121.559 73.7696 121.327 73.5379C121.089 73.2921 120.911 72.9948 120.806 72.669C120.734 72.4224 120.752 72.158 120.859 71.9241C120.965 71.6902 121.152 71.5023 121.385 71.3946C121.596 71.3066 121.829 71.2864 122.051 71.3366C122.324 71.3994 122.58 71.5177 122.804 71.6842C123.21 71.9738 123.471 72.2635 123.557 72.611C123.598 72.7736 123.603 72.9428 123.573 73.1075C123.543 73.2722 123.478 73.4288 123.384 73.5668L122.689 73.1324C122.775 72.9586 122.804 72.7848 122.747 72.64C122.718 72.4952 122.602 72.3504 122.399 72.2345C122.25 72.1148 122.068 72.044 121.878 72.0318C121.825 72.03 121.773 72.0425 121.727 72.068C121.681 72.0936 121.643 72.1311 121.617 72.1766C121.559 72.2635 121.559 72.3504 121.588 72.4662C121.617 72.5821 121.762 72.8138 122.051 73.1034C122.341 73.393 122.515 73.6537 122.631 73.8275C122.734 74.0173 122.781 74.2328 122.765 74.4485C122.75 74.6641 122.673 74.8708 122.544 75.0439C122.408 75.2409 122.216 75.3923 121.993 75.4784C121.776 75.5784 121.533 75.6087 121.298 75.5653C121.038 75.5074 120.777 75.3915 120.487 75.1888C120.053 74.8991 119.792 74.5805 119.705 74.233C119.611 73.8389 119.673 73.4235 119.879 73.0744L119.908 73.1034ZM116.548 70.9022L117.272 71.2787C117.183 71.4787 117.162 71.703 117.215 71.9159C117.289 72.1147 117.433 72.2795 117.62 72.3793C117.852 72.5241 118.026 72.5821 118.199 72.5531C118.373 72.5531 118.489 72.4662 118.576 72.3214C118.62 72.2525 118.64 72.1712 118.634 72.0897C118.634 72.0028 118.576 71.8869 118.489 71.8001C118.341 71.6209 118.186 71.4471 118.026 71.2787C117.707 70.9601 117.504 70.6995 117.446 70.4677C117.399 70.3187 117.385 70.1611 117.405 70.006C117.425 69.8509 117.478 69.702 117.562 69.5699C117.672 69.3911 117.834 69.2498 118.026 69.1644C118.225 69.0726 118.446 69.0424 118.663 69.0775C118.931 69.1226 119.187 69.2211 119.416 69.3671C119.85 69.6568 120.111 69.9464 120.198 70.265C120.251 70.4278 120.268 70.6001 120.248 70.77C120.228 70.94 120.171 71.1037 120.082 71.2498L119.358 70.8443C119.445 70.6415 119.474 70.4967 119.416 70.3519C119.358 70.2071 119.242 70.0623 119.039 69.9464C118.879 69.8314 118.686 69.7705 118.489 69.7726C118.441 69.7758 118.395 69.7907 118.355 69.816C118.314 69.8413 118.281 69.8761 118.257 69.9174C118.199 70.0043 118.199 70.0912 118.228 70.2071C118.257 70.3229 118.431 70.5546 118.721 70.8443C119.01 71.1339 119.213 71.3656 119.3 71.5394C119.416 71.721 119.478 71.9321 119.478 72.1476C119.478 72.3632 119.416 72.5742 119.3 72.7558C119.175 72.9579 118.994 73.119 118.779 73.2193C118.561 73.3193 118.319 73.3496 118.083 73.3061C117.785 73.2558 117.5 73.1475 117.243 72.9876C116.869 72.788 116.581 72.4583 116.433 72.0607C116.321 71.674 116.362 71.2591 116.548 70.9022ZM112.436 69.8016L114.55 66.326L117.099 67.919L116.751 68.4982L114.897 67.3397L114.434 68.1217L116.172 69.1934L115.795 69.7726L114.058 68.701L113.478 69.6568L115.419 70.8153L115.071 71.3946L112.465 69.8016H112.436ZM106.44 64.8778L106.759 64.2986L108.323 65.0806L107.599 66.5287C107.367 66.5867 107.077 66.6156 106.73 66.5867C106.396 66.5499 106.072 66.4517 105.774 66.297C105.424 66.1263 105.124 65.8666 104.905 65.544C104.706 65.2442 104.605 64.89 104.615 64.5303C104.63 64.1558 104.729 63.7895 104.905 63.4586C105.079 63.1103 105.338 62.8115 105.658 62.5897C105.964 62.378 106.329 62.2667 106.701 62.2711C106.99 62.2711 107.28 62.358 107.628 62.5608C108.091 62.7635 108.381 63.0531 108.526 63.3717C108.676 63.688 108.707 64.0482 108.612 64.3854L107.83 64.1537C107.878 63.9597 107.858 63.7552 107.772 63.5745C107.686 63.4007 107.541 63.2848 107.309 63.169C107.174 63.0919 107.024 63.0443 106.869 63.0293C106.715 63.0144 106.559 63.0323 106.411 63.0821C106.122 63.169 105.861 63.4297 105.658 63.8351C105.455 64.2406 105.369 64.6172 105.455 64.9357C105.495 65.0868 105.568 65.2274 105.668 65.3474C105.768 65.4675 105.893 65.5643 106.035 65.6309C106.18 65.7178 106.353 65.7757 106.527 65.7757C106.7 65.8019 106.876 65.8019 107.048 65.7757L107.28 65.3123L106.44 64.8778ZM80.3153 58.419L80.8945 54.3641L82.111 54.5669L82.4296 57.4053L83.5592 54.7986L84.7756 54.9724L84.1964 58.9693L83.4143 58.8535L83.9067 55.6965L82.6323 58.7376L81.8503 58.6217L81.5317 55.3489L81.0683 58.5349L80.3153 58.419ZM76.2314 57.9266L76.608 53.8718L79.5912 54.1614L79.5333 54.8565L77.361 54.6538L77.2741 55.5227L79.3015 55.7254L79.2147 56.4205L77.1872 56.2178L77.1003 57.3184L79.3595 57.5211L79.3015 58.2163L76.2314 57.9266Z" fill="#309E3A"/>
<path d="M62.7056 55.4068C62.7056 54.9724 62.7925 54.6538 62.9083 54.3641C63.0098 54.1582 63.1471 53.9718 63.3138 53.8138C63.4624 53.664 63.6397 53.5458 63.8351 53.4663C64.1248 53.3794 64.4144 53.3215 64.704 53.3215C65.3123 53.3215 65.7757 53.5532 66.1522 53.9007C66.3314 54.1221 66.4647 54.377 66.5443 54.6506C66.6239 54.9241 66.6481 55.2107 66.6156 55.4937C66.6156 56.1309 66.4129 56.6522 66.0363 57.0288C65.8429 57.2076 65.614 57.3438 65.3645 57.4287C65.1151 57.5135 64.8506 57.545 64.5882 57.5211C64.3293 57.5238 64.0726 57.4738 63.8336 57.3742C63.5946 57.2746 63.3784 57.1275 63.1979 56.9419C62.8375 56.5153 62.6605 55.9634 62.7056 55.4068Z" fill="#309E3A"/>
<path d="M63.5455 55.4068C63.5455 55.8413 63.6324 56.1888 63.8352 56.4495C64.0379 56.6812 64.2986 56.826 64.6461 56.826C64.7965 56.8365 64.9473 56.8134 65.0876 56.7583C65.2279 56.7032 65.3541 56.6175 65.4571 56.5074C65.6599 56.2757 65.7467 55.9281 65.7757 55.4358C65.7757 54.9724 65.7178 54.6248 65.4861 54.3931C65.3917 54.2764 65.2726 54.182 65.1374 54.1169C65.0022 54.0518 64.8542 54.0175 64.7041 54.0166C64.5517 54.0117 64.4001 54.0403 64.26 54.1003C64.1199 54.1604 63.9946 54.2504 63.8931 54.3641C63.6614 54.5958 63.5745 54.9434 63.5455 55.4068Z" fill="#F7FFFF"/>
<path d="M67.4845 57.4922L67.5424 53.4373H69.2802C69.7147 53.4373 70.0043 53.4952 70.207 53.5821C70.4098 53.64 70.5546 53.7849 70.6705 53.9586C70.7863 54.1324 70.8442 54.3641 70.8442 54.6248C70.8465 54.9034 70.743 55.1725 70.5546 55.3778C70.3405 55.5784 70.065 55.7009 69.7726 55.7254L70.207 56.073C70.3229 56.1888 70.4677 56.4205 70.6415 56.7391L71.1339 57.5501H70.1491L69.5699 56.6233L69.1644 56.044C69.0941 55.9643 69.0043 55.9044 68.9037 55.8702C68.772 55.8318 68.6354 55.8123 68.4982 55.8123H68.3244V57.4922H67.4845Z" fill="#309E3A"/>
<path d="M68.3534 55.1751H68.9327C69.3381 55.1751 69.5988 55.1751 69.6857 55.1172C69.7726 55.1172 69.8595 55.0303 69.9174 54.9724C69.9753 54.9144 70.0043 54.7696 70.0043 54.6827C70.0043 54.509 69.9753 54.3931 69.8885 54.3352C69.8305 54.2483 69.7147 54.1904 69.5988 54.1614H69.0196L68.3534 54.1324V55.1461V55.1751Z" fill="white"/>
<path d="M72.1186 53.64L73.6247 53.7269C73.9433 53.7269 74.204 53.7559 74.3778 53.8138C74.6032 53.8956 74.803 54.0355 74.957 54.2193C75.1239 54.4218 75.2427 54.6595 75.3046 54.9144C75.3915 55.1751 75.4204 55.4937 75.3915 55.8702C75.3912 56.1658 75.3423 56.4594 75.2467 56.7391C75.1308 57.0288 74.957 57.2605 74.7543 57.4342C74.5856 57.5733 74.3875 57.6723 74.175 57.7239C74.0013 57.7818 73.7406 57.7818 73.451 57.7818L71.9159 57.6949L72.1186 53.64Z" fill="#309E3A"/>
<path d="M72.9006 54.3641L72.7558 57.0577H73.8564C74.0012 57.0577 74.1171 56.9998 74.204 56.9129C74.2909 56.826 74.3777 56.7101 74.4357 56.5364C74.4936 56.3626 74.5515 56.1019 74.5515 55.7833L74.5226 55.0592C74.4812 54.9065 74.4014 54.7669 74.2909 54.6538C74.1947 54.557 74.0749 54.4871 73.9433 54.451C73.7243 54.4023 73.5013 54.3732 73.2771 54.3641H72.9006Z" fill="white"/>
<path d="M91.9875 60.8809L92.9433 56.9419L94.2177 57.2315L95.1445 57.5211C95.3472 57.637 95.521 57.8108 95.6079 58.0714C95.7238 58.3031 95.7237 58.5638 95.6658 58.8824C95.6079 59.1141 95.521 59.3169 95.3762 59.4617C95.27 59.5889 95.1371 59.6911 94.9869 59.7612C94.8367 59.8313 94.673 59.8674 94.5073 59.8672C94.3045 59.8672 94.0149 59.8092 93.6384 59.7223L93.146 59.5775L92.7985 61.0836L91.9875 60.8809Z" fill="#309E3A"/>
<path d="M93.5515 57.8108L93.3198 58.9114L93.7543 59.0272C94.0439 59.0851 94.2756 59.1431 94.3915 59.1141C94.5041 59.0985 94.6092 59.0483 94.6922 58.9705C94.7752 58.8927 94.832 58.7911 94.8549 58.6797C94.8549 58.5348 94.8549 58.419 94.7969 58.3031C94.7334 58.1854 94.6311 58.0933 94.5073 58.0425L93.957 57.8976L93.5805 57.8108H93.5515Z" fill="white"/>
<path d="M95.7527 62.0104L97.114 58.1873L98.7069 58.7666C99.1414 58.9114 99.4021 59.0562 99.5758 59.172C99.7207 59.3169 99.8365 59.4617 99.8655 59.6934C99.8944 59.9251 99.9234 60.1278 99.8655 60.3595C99.7496 60.6492 99.5758 60.8519 99.3441 60.9967C99.1124 61.1126 98.8228 61.1415 98.4752 61.0836C98.5911 61.2284 98.7069 61.3733 98.7649 61.547L98.9966 62.329L99.1704 63.2269L98.2725 62.9083L97.9829 61.8656C97.9302 61.6298 97.8625 61.3976 97.7801 61.1705C97.7417 61.0804 97.6821 61.0009 97.6063 60.9388C97.5484 60.8519 97.4326 60.794 97.2298 60.7361L97.085 60.6781L96.5057 62.3001L95.7527 62.0104Z" fill="#309E3A"/>
<path d="M97.3167 60.0699L97.867 60.2726C98.2435 60.4175 98.4752 60.4754 98.5911 60.4754C98.678 60.4754 98.7648 60.4754 98.8517 60.3885C98.9386 60.3306 98.9966 60.2437 99.0255 60.1278C99.0834 60.012 99.0834 59.8961 99.0255 59.7803C98.9827 59.668 98.9003 59.5753 98.7938 59.5196L98.2145 59.3168L97.6353 59.1141L97.2877 60.0699H97.3167Z" fill="white"/>
<path d="M100.503 61.8656C100.602 61.5265 100.77 61.2112 100.995 60.9388C101.142 60.764 101.318 60.6169 101.516 60.5043C101.696 60.4029 101.892 60.3343 102.096 60.3016C102.385 60.3016 102.675 60.3016 102.994 60.4175C103.252 60.4815 103.495 60.5999 103.704 60.7646C103.914 60.9294 104.086 61.1369 104.21 61.3732C104.442 61.8367 104.442 62.387 104.268 63.0242C104.125 63.5716 103.771 64.0401 103.283 64.3275C102.849 64.5882 102.327 64.6171 101.777 64.4434C101.519 64.3776 101.277 64.2586 101.068 64.094C100.858 63.9294 100.686 63.7229 100.561 63.4876C100.445 63.2344 100.38 62.9607 100.37 62.6824C100.36 62.404 100.405 62.1265 100.503 61.8656Z" fill="#309E3A"/>
<path d="M101.314 62.0973C101.198 62.5318 101.169 62.9083 101.314 63.1979C101.458 63.4875 101.661 63.6613 101.98 63.7772C102.269 63.8641 102.559 63.8351 102.849 63.6613C103.138 63.5165 103.312 63.1979 103.457 62.7345C103.602 62.3001 103.602 61.9525 103.457 61.6629C103.4 61.5254 103.313 61.4023 103.203 61.3022C103.093 61.2021 102.962 61.1275 102.82 61.0836C102.677 61.0344 102.526 61.0167 102.376 61.0317C102.226 61.0467 102.081 61.094 101.951 61.1705C101.661 61.3443 101.458 61.6339 101.314 62.0973Z" fill="white"/>
<path d="M108.41 67.5135L110.263 63.922L111.798 64.704C112.088 64.8429 112.352 65.0288 112.58 65.2543C112.725 65.3992 112.812 65.5729 112.812 65.8046C112.812 66.0363 112.812 66.2391 112.696 66.4418C112.585 66.7023 112.377 66.9097 112.117 67.0211C111.827 67.079 111.538 67.079 111.219 66.9632C111.335 67.137 111.393 67.3107 111.451 67.4556C111.509 67.6293 111.538 67.89 111.567 68.2665L111.625 69.1933L110.756 68.7589L110.64 67.6873C110.626 67.4443 110.597 67.2025 110.553 66.9632C110.533 66.8548 110.483 66.7544 110.408 66.6735L110.061 66.4708L109.916 66.3839L109.134 67.89L108.41 67.5135Z" fill="#309E3A"/>
<path d="M110.205 65.8046L110.756 66.0943C111.103 66.2681 111.335 66.3839 111.422 66.3839C111.509 66.3839 111.625 66.3839 111.711 66.326C111.798 66.297 111.856 66.2101 111.914 66.0943C111.972 65.9784 112.001 65.8626 111.972 65.7467C111.936 65.6314 111.866 65.5301 111.769 65.4571C111.6 65.353 111.426 65.2564 111.248 65.1675L110.669 64.8778L110.205 65.8046Z" fill="white"/>
<path d="M123.413 74.9281C123.6 74.6303 123.847 74.374 124.137 74.175C124.332 74.0503 124.548 73.962 124.774 73.9144C124.984 73.8715 125.201 73.8715 125.411 73.9144C125.701 73.9723 125.961 74.0882 126.222 74.2619C126.448 74.4023 126.641 74.5882 126.791 74.8076C126.94 75.027 127.043 75.2752 127.091 75.5363C127.178 76.0287 127.033 76.579 126.686 77.1293C126.395 77.6079 125.926 77.9517 125.382 78.0851C125.123 78.1411 124.855 78.1417 124.595 78.0868C124.336 78.0319 124.09 77.9227 123.876 77.7665C123.651 77.6261 123.457 77.4402 123.307 77.2208C123.158 77.0014 123.056 76.7532 123.007 76.4921C122.92 75.9708 123.065 75.4494 123.413 74.9281Z" fill="#309E3A"/>
<path d="M124.137 75.3915C123.847 75.768 123.76 76.1156 123.818 76.4342C123.839 76.5809 123.892 76.7213 123.972 76.8462C124.052 76.9711 124.157 77.0774 124.282 77.1583C124.571 77.361 124.861 77.4189 125.15 77.332C125.44 77.2451 125.73 77.0424 125.99 76.6369C126.251 76.2314 126.367 75.8839 126.309 75.5942C126.28 75.3046 126.106 75.0439 125.846 74.8412C125.585 74.6384 125.266 74.6095 124.977 74.6964C124.687 74.7543 124.397 74.986 124.108 75.3915H124.137Z" fill="white"/>
<path d="M87.4113 59.23L88.0774 56.3916L90.1628 56.8839L90.0759 57.3474L88.5408 56.9998L88.396 57.637L89.8152 57.9556L89.6994 58.448L88.2802 58.1004L88.1064 58.8824L89.6994 59.2589L89.5835 59.7224L87.4113 59.23Z" fill="#309E3A"/>
</svg>
