<svg width="14" height="14" viewBox="0 0 14 14" fill="none" xmlns="http://www.w3.org/2000/svg">
<path d="M13.3537 13.1462L10.2244 10.0175C11.1314 8.92856 11.5837 7.53186 11.4871 6.11795C11.3906 4.70404 10.7527 3.38177 9.70609 2.42622C8.65948 1.47067 7.28477 0.955399 5.86794 0.987599C4.4511 1.0198 3.10122 1.59699 2.09911 2.5991C1.097 3.60122 0.519806 4.9511 0.487606 6.36793C0.455406 7.78477 0.970677 9.15948 1.92623 10.2061C2.88178 11.2527 4.20405 11.8906 5.61796 11.9871C7.03187 12.0837 8.42856 11.6314 9.5175 10.7244L12.6462 13.8537C12.6927 13.9002 12.7479 13.937 12.8085 13.9622C12.8692 13.9873 12.9343 14.0003 13 14.0003C13.0657 14.0003 13.1307 13.9873 13.1914 13.9622C13.2521 13.937 13.3073 13.9002 13.3537 13.8537C13.4002 13.8073 13.4371 13.7521 13.4622 13.6914C13.4873 13.6307 13.5003 13.5657 13.5003 13.5C13.5003 13.4343 13.4873 13.3692 13.4622 13.3085C13.4371 13.2478 13.4002 13.1927 13.3537 13.1462ZM1.5 6.49999C1.5 5.60997 1.76392 4.73994 2.25838 3.99992C2.75285 3.2599 3.45565 2.68313 4.27792 2.34253C5.10019 2.00194 6.00499 1.91282 6.8779 2.08646C7.75082 2.26009 8.55264 2.68867 9.18198 3.31801C9.81131 3.94735 10.2399 4.74917 10.4135 5.62208C10.5872 6.495 10.4981 7.3998 10.1575 8.22207C9.81686 9.04433 9.24008 9.74714 8.50006 10.2416C7.76004 10.7361 6.89001 11 6 11C4.80693 10.9987 3.66311 10.5241 2.81948 9.68051C1.97585 8.83688 1.50132 7.69306 1.5 6.49999Z" fill="#52525B"/>
</svg>
