<svg width="26" height="26" viewBox="0 0 26 26" fill="none" xmlns="http://www.w3.org/2000/svg">
<path d="M13.4443 8.07196C10.8613 8.07196 8.75684 10.1765 8.75684 12.7595C8.75684 15.3425 10.8613 17.447 13.4443 17.447C16.0273 17.447 18.1318 15.3425 18.1318 12.7595C18.1318 10.1765 16.0273 8.07196 13.4443 8.07196ZM25.4756 12.0026L20.8516 9.69305L22.4873 4.79071C22.707 4.12665 22.0771 3.49677 21.418 3.72137L16.5156 5.35712L14.2012 0.72821C13.8887 0.10321 13 0.10321 12.6875 0.72821L10.3779 5.35223L5.4707 3.71649C4.80664 3.49677 4.17676 4.12665 4.40137 4.78583L6.03711 9.68817L1.41309 12.0026C0.788086 12.3151 0.788086 13.2038 1.41309 13.5163L6.03711 15.8259L4.40137 20.7331C4.18164 21.3972 4.81152 22.027 5.4707 21.8024L10.373 20.1667L12.6826 24.7907C12.9951 25.4157 13.8838 25.4157 14.1963 24.7907L16.5059 20.1667L21.4082 21.8024C22.0723 22.0222 22.7021 21.3923 22.4775 20.7331L20.8418 15.8307L25.4658 13.5212C26.1006 13.2038 26.1006 12.3151 25.4756 12.0026ZM17.8633 17.1784C15.4268 19.6149 11.4619 19.6149 9.02539 17.1784C6.58887 14.7419 6.58887 10.777 9.02539 8.34052C11.4619 5.90399 15.4268 5.90399 17.8633 8.34052C20.2998 10.777 20.2998 14.7419 17.8633 17.1784Z" fill="black"/>
</svg>
