<svg width="185" height="139" viewBox="0 0 185 139" fill="none" xmlns="http://www.w3.org/2000/svg">
<path fill-rule="evenodd" clip-rule="evenodd" d="M0 0H185V10.6965H0V0ZM0 21.393H185V32.0895H0V21.393ZM0 42.7588H185V53.4824H0V42.7588ZM0 64.1518H185V74.8482H0V64.1518ZM0 85.5447H185V96.2412H0V85.5447ZM0 106.911H185V117.607H0V106.911ZM0 128.304H185V139H0V128.304Z" fill="#BD3D44"/>
<path fill-rule="evenodd" clip-rule="evenodd" d="M0 10.6965H185V21.393H0V10.6965ZM0 32.0895H185V42.7588H0V32.0895ZM0 53.4553H185V64.1518H0V53.4553ZM0 74.8483H185V85.5447H0V74.8483ZM0 96.2412H185V106.938H0V96.2412ZM0 117.607H185V128.304H0V117.607Z" fill="white"/>
<path fill-rule="evenodd" clip-rule="evenodd" d="M0 0H73.9962V74.8482H0V0Z" fill="#192F5D"/>
<path fill-rule="evenodd" clip-rule="evenodd" d="M6.16161 3.20352L6.84623 6.1627H9.0142L7.26461 7.98165L7.93022 10.968L6.16161 9.12188L4.41202 10.9408L5.07763 7.98165L3.30902 6.1627H5.51502L6.16161 3.20352ZM18.5038 3.20352L19.1694 6.1627H21.3564L19.5878 7.98165L20.2534 10.968L18.5038 9.12188L16.7352 10.9408L17.4008 7.98165L15.6512 6.1627H17.8192L18.5038 3.20352ZM30.827 3.20352L31.5116 6.1627H33.6606L31.911 7.98165L32.5766 10.968L30.808 9.12188L29.0584 10.9408L29.724 7.98165L27.9554 6.1627H30.1424L30.827 3.20352ZM43.1692 3.20352L43.8348 6.1627H46.0218L44.2532 7.98165L44.9378 10.968L43.1692 9.12188L41.4006 10.9408L42.0852 7.98165L40.3166 6.1627H42.4846L43.1692 3.20352ZM55.4924 3.20352L56.177 6.1627H58.345L56.5954 7.98165L57.261 10.968L55.4924 9.12188L53.7428 10.9408L54.4084 7.98165L52.6588 6.1627H54.8268L55.4924 3.20352ZM67.8346 3.20352L68.5002 6.1627H70.6872L68.9186 7.98165L69.6032 10.968L67.8346 9.12188L66.066 10.9408L66.7506 7.98165L64.982 6.1627H67.169L67.8346 3.20352ZM12.3422 10.6965L13.0078 13.6557H15.1948L13.4262 15.4746L14.0728 18.4338L12.3612 16.6149L10.5926 18.4338L11.2202 15.4746L9.50865 13.6557H11.6766L12.3422 10.6965ZM24.6654 10.6965L25.35 13.6557H27.518L25.7494 15.4746L26.434 18.4338L24.6654 16.6149L22.8968 18.4338L23.5814 15.4746L21.8128 13.6557H23.9998L24.6654 10.6965ZM37.0076 10.6965L37.6732 13.6557H39.8602L38.0916 15.4746L38.7572 18.4338L37.0076 16.6149L35.239 18.4338L35.9046 15.4746L34.155 13.6557H36.323L37.0076 10.6965ZM49.3308 10.6965L50.0154 13.6557H52.1834L50.4148 15.4746L51.0994 18.4338L49.3308 16.6149L47.5812 18.4338L48.2468 15.4746L46.4782 13.6557H48.6842L49.3308 10.6965ZM61.673 10.6965L62.3386 13.6557H64.5256L62.757 15.4746L63.4226 18.4338L61.673 16.6149L59.9044 18.4338L60.57 15.4746L58.8204 13.6557H60.9884L61.673 10.6965ZM6.16161 18.1623L6.84623 21.1758H9.0142L7.26461 22.9947L7.93022 25.9539L6.16161 24.1078L4.41202 25.9539L5.07763 22.9676L3.30902 21.1486H5.51502L6.16161 18.1623ZM18.5038 18.1623L19.1694 21.1486H21.3564L19.5878 22.9676L20.2534 25.9268L18.5038 24.0807L16.7352 25.9268L17.4008 22.9404L15.6512 21.1215H17.8192L18.5038 18.1623ZM30.827 18.1623L31.5116 21.1486H33.6606L31.911 22.9676L32.5766 25.9268L30.808 24.0807L29.0584 25.9268L29.724 22.9404L27.9554 21.1215H30.1424L30.827 18.1623ZM43.1692 18.1623L43.8348 21.1486H46.0218L44.2532 22.9676L44.9378 25.9268L43.1692 24.0807L41.4006 25.9268L42.0852 22.9404L40.3166 21.1215H42.4846L43.1692 18.1623ZM55.4924 18.1623L56.177 21.1486H58.345L56.5954 22.9676L57.261 25.9268L55.4924 24.0807L53.7428 25.9268L54.4084 22.9404L52.6588 21.1215H54.8268L55.4924 18.1623ZM67.8346 18.1623L68.5002 21.1486H70.6872L68.9186 22.9676L69.6032 25.9268L67.8346 24.0807L66.066 25.9268L66.7506 22.9404L64.982 21.1215H67.169L67.8346 18.1623ZM12.3422 25.6553L13.0078 28.6145H15.1948L13.4262 30.4334L14.0918 33.4197L12.3422 31.5736L10.5736 33.3926L11.2392 30.4334L9.48963 28.6145H11.6576L12.3422 25.6553ZM24.6654 25.6553L25.35 28.6145H27.518L25.7494 30.4334L26.434 33.4197L24.6654 31.5736L22.8968 33.3926L23.5814 30.4334L21.8128 28.6145H23.9998L24.6654 25.6553ZM37.0076 25.6553L37.6732 28.6145H39.8602L38.0916 30.4334L38.7572 33.4197L37.0076 31.5736L35.239 33.3926L35.9046 30.4334L34.155 28.6145H36.323L37.0076 25.6553ZM49.3308 25.6553L50.0154 28.6145H52.1834L50.4338 30.4334L51.0994 33.4197L49.3308 31.5736L47.5812 33.3926L48.2468 30.4334L46.4782 28.6145H48.6842L49.3308 25.6553ZM61.673 25.6553L62.3386 28.6145H64.5256L62.757 30.4334L63.4226 33.4197L61.673 31.5736L59.9044 33.3926L60.57 30.4334L58.8204 28.6145H60.9884L61.673 25.6553ZM6.16161 33.1482L6.84623 36.1074H9.0142L7.26461 37.9264L7.93022 40.9127L6.16161 39.0666L4.41202 40.8856L5.07763 37.9264L3.30902 36.1074H5.51502L6.16161 33.1482ZM18.5038 33.1482L19.1694 36.1074H21.3564L19.5878 37.9264L20.2534 40.8856L18.5038 39.0666L16.7352 40.8856L17.4008 37.9264L15.6512 36.1074H17.8192L18.5038 33.1482ZM30.827 33.1482L31.5116 36.1074H33.6606L31.911 37.9264L32.5766 40.9127L30.808 39.0666L29.0584 40.8856L29.724 37.9264L27.9554 36.1074H30.1424L30.827 33.1482ZM43.1692 33.1482L43.8348 36.1074H46.0218L44.2532 37.9264L44.9378 40.9127L43.1692 39.0666L41.4006 40.8856L42.0852 37.9264L40.3166 36.1074H42.4846L43.1692 33.1482ZM55.4924 33.1482L56.177 36.1074H58.345L56.5954 37.9264L57.261 40.9127L55.4924 39.0666L53.7428 40.8856L54.4084 37.9264L52.6588 36.1074H54.8268L55.4924 33.1482ZM67.8346 33.1482L68.5002 36.1074H70.6872L68.9186 37.9264L69.6032 40.9127L67.8346 39.0666L66.066 40.8856L66.7506 37.9264L64.982 36.1074H67.169L67.8346 33.1482ZM12.3422 40.6412L13.0078 43.6004H15.1948L13.4262 45.4193L14.0918 48.3785L12.3422 46.5324L10.5736 48.3785L11.2392 45.3922L9.48963 43.5732H11.6576L12.3422 40.6412ZM24.6654 40.6412L25.35 43.6004H27.518L25.7494 45.4193L26.434 48.3785L24.6654 46.5324L22.8968 48.3785L23.5814 45.3922L21.8128 43.5732H23.9998L24.6654 40.6412ZM37.0076 40.6412L37.6732 43.6004H39.8602L38.0916 45.4193L38.7572 48.3785L37.0076 46.5324L35.239 48.3785L35.9046 45.3922L34.155 43.5732H36.323L37.0076 40.6412ZM49.3308 40.6412L50.0154 43.6004H52.1834L50.4338 45.4193L51.0994 48.3785L49.3308 46.5324L47.5812 48.3785L48.2468 45.3922L46.4782 43.5732H48.6842L49.3308 40.6412ZM61.673 40.6412L62.3386 43.6004H64.5256L62.757 45.4193L63.4226 48.3785L61.673 46.5324L59.9044 48.3785L60.57 45.3922L58.8204 43.5732H60.9884L61.673 40.6412ZM6.16161 48.107L6.84623 51.0934H9.0142L7.26461 52.9123L7.93022 55.8443L6.16161 54.0254L4.41202 55.8443L5.07763 52.8852L3.30902 51.0662H5.51502L6.16161 48.107ZM18.5038 48.107L19.1694 51.0934H21.3564L19.5878 52.9123L20.2724 55.8443L18.5038 54.0254L16.7352 55.8443L17.4198 52.8852L15.6512 51.0662H17.8192L18.5038 48.107ZM30.827 48.107L31.5116 51.0934H33.6606L31.911 52.9123L32.5766 55.8443L30.808 54.0254L29.0584 55.8443L29.724 52.8852L27.9554 51.0662H30.1424L30.827 48.107ZM43.1692 48.107L43.8348 51.0934H46.0218L44.2532 52.9123L44.9378 55.8443L43.1692 54.0254L41.4006 55.8443L42.0852 52.8852L40.3166 51.0662H42.4846L43.1692 48.107ZM55.4924 48.107L56.177 51.0934H58.345L56.5954 52.9123L57.261 55.8443L55.4924 54.0254L53.7428 55.8443L54.4084 52.8852L52.6588 51.0662H54.8268L55.4924 48.107ZM67.8346 48.107L68.5002 51.0934H70.6872L68.9186 52.9123L69.6032 55.8443L67.8346 54.0254L66.066 55.8443L66.7506 52.8852L64.982 51.0662H67.169L67.8346 48.107ZM12.3422 55.6L13.0078 58.5592H15.1948L13.4262 60.3781L14.0918 63.3645L12.3422 61.5184L10.5736 63.3373L11.2392 60.3781L9.48963 58.5592H11.6576L12.3422 55.6ZM24.6654 55.6L25.35 58.5592H27.518L25.7494 60.3781L26.434 63.3645L24.6654 61.5184L22.8968 63.3373L23.5814 60.3781L21.8128 58.5592H23.9998L24.6654 55.6ZM37.0076 55.6L37.6732 58.5592H39.8602L38.0916 60.3781L38.7572 63.3645L37.0076 61.5184L35.239 63.3373L35.9046 60.3781L34.155 58.5592H36.323L37.0076 55.6ZM49.3308 55.6L50.0154 58.5592H52.1834L50.4338 60.3781L51.0994 63.3645L49.3308 61.5184L47.5812 63.3373L48.2468 60.3781L46.4782 58.5592H48.6842L49.3308 55.6ZM61.673 55.6L62.3386 58.5592H64.5256L62.757 60.3781L63.4226 63.3645L61.673 61.5184L59.9044 63.3373L60.57 60.3781L58.8204 58.5592H60.9884L61.673 55.6ZM6.16161 63.093L6.84623 66.0522H9.0142L7.26461 67.8711L7.93022 70.8303L6.16161 69.0113L4.41202 70.8303L5.07763 67.8439L3.30902 66.025H5.51502L6.16161 63.093ZM18.5038 63.093L19.1694 66.0522H21.3564L19.5878 67.8711L20.2724 70.8303L18.5038 69.0113L16.7352 70.8303L17.4198 67.8439L15.6512 66.025H17.8192L18.5038 63.093ZM30.827 63.093L31.5116 66.0522H33.6606L31.949 67.8711L32.6146 70.8303L30.846 69.0113L29.0964 70.8303L29.762 67.8439L27.9934 66.025H30.1804L30.827 63.093ZM43.1692 63.093L43.8348 66.0522H46.0218L44.2532 67.8711L44.9378 70.8303L43.1692 69.0113L41.4006 70.8303L42.0852 67.8439L40.3166 66.025H42.4846L43.1692 63.093ZM55.4924 63.093L56.177 66.0522H58.345L56.5954 67.8711L57.261 70.8303L55.4924 69.0113L53.7428 70.8303L54.4084 67.8439L52.6588 66.025H54.8268L55.4924 63.093ZM67.8346 63.093L68.5002 66.0522H70.6872L68.9186 67.8711L69.6032 70.8303L67.8346 69.0113L66.066 70.8303L66.7506 67.8439L64.982 66.025H67.169L67.8346 63.093Z" fill="white"/>
</svg>
